<svg width="359" height="359" viewBox="0 0 359 359" fill="none" xmlns="http://www.w3.org/2000/svg">
<g clip-path="url(#clip0)">
<path d="M177.38 283.661L50.0087 84.6273L305.695 85.2143L177.38 283.661Z" fill="#44AFEB"/>
<path d="M178.854 272.002L63.2125 91.9301L295.349 92.4631L178.854 272.002Z" fill="#777171"/>
<path d="M350.097 146.107L318.06 142.259C314.786 130.039 309.989 118.494 303.815 107.782L323.732 82.4662C326.776 78.5748 326.432 72.5582 322.913 69.0545L289.9 36.0278C286.425 32.5385 280.393 32.1651 276.487 35.2093L251.128 55.1546C240.458 48.98 228.913 44.184 216.721 40.9387L212.887 8.90284C212.298 4.00628 207.775 0 202.835 0H156.136C151.196 0 146.673 4.00628 146.099 8.90284L142.25 40.9387C130.044 44.1983 118.484 49.0087 107.815 55.1689L82.4695 35.2524C78.5923 32.2082 72.5611 32.5672 69.0716 36.0565L36.0436 69.0975C32.5685 72.5725 32.2095 78.6035 35.2682 82.5093L55.1711 107.839C48.9963 118.523 44.2001 130.082 40.9404 142.302L8.91756 146.136C4.0208 146.71 0 151.233 0 156.187V202.884C0 207.824 4.00644 212.318 8.91756 212.922L40.9547 216.77C44.2288 228.947 49.0107 240.492 55.1855 251.175L35.2825 276.534C32.2526 280.425 32.5972 286.442 36.101 289.946L69.0716 322.987C72.5611 326.462 78.5923 326.849 82.4695 323.805L107.829 303.845C118.513 310.02 130.059 314.83 142.265 318.076L146.113 350.097C146.702 355.008 151.211 359 156.151 359H202.849C207.804 359 212.313 355.008 212.887 350.097L216.735 318.076C228.956 314.802 240.501 310.006 251.171 303.845L276.531 323.762C280.422 326.806 286.439 326.447 289.928 322.958L322.942 289.917C326.446 286.442 326.805 280.411 323.746 276.491L303.815 251.161C310.004 240.477 314.786 228.932 318.06 216.741L350.082 212.893C354.994 212.304 359 207.824 359 202.856V156.159C359.014 151.19 355.022 146.696 350.097 146.107ZM179.514 269.239C129.944 269.239 89.7644 229.062 89.7644 179.493C89.7644 129.924 129.944 89.7464 179.514 89.7464C229.085 89.7464 269.264 129.924 269.264 179.493C269.264 229.062 229.099 269.239 179.514 269.239Z" fill="#44AFEB"/>
<path d="M180.077 209.986L96.823 76.4709L263.965 76.8546L180.077 209.986Z" fill="#44AFEB"/>
<path d="M78 123.086C154 28.0858 238 92.0858 238 92.0858" stroke="#44AFEB" stroke-width="50"/>
<path d="M217.246 79.851C335.133 134.434 284.527 233.214 284.527 233.214" stroke="#44AFEB" stroke-width="50"/>
<circle cx="65" cy="163" r="8" fill="#777171"/>
<circle cx="97" cy="97" r="8" fill="#777171"/>
<circle cx="76" cy="232" r="8" fill="#777171"/>
<circle cx="121" cy="276" r="8" fill="#777171"/>
<circle cx="179" cy="302" r="8" fill="#777171"/>
<circle cx="246" cy="276" r="8" fill="#777171"/>
<circle cx="285" cy="227" r="8" fill="#777171"/>
<circle cx="296" cy="163" r="8" fill="#777171"/>
<circle cx="262" cy="97" r="8" fill="#777171"/>
<path d="M177.992 60.5586C168.93 60.5586 161.559 67.931 161.559 76.9925C161.559 86.0541 168.93 93.4254 177.992 93.4254C187.054 93.4254 194.425 86.0541 194.425 76.9925C194.425 67.931 187.054 60.5586 177.992 60.5586ZM177.992 90.8332C170.36 90.8332 164.151 84.6243 164.151 76.9925C164.151 69.3597 170.36 63.1507 177.992 63.1507C185.624 63.1507 191.833 69.3597 191.833 76.9925C191.833 84.6243 185.624 90.8332 177.992 90.8332Z" fill="#777171"/>
<path d="M175.401 73.7797C175.401 72.7401 176.922 72.5625 178.241 72.5625C179.484 72.5625 181.183 73.1452 182.603 73.8815L182.881 71.016C182.171 70.6099 180.523 70.1279 178.85 70.0272L179.255 67.1108H176.542L176.948 70.0272C173.449 70.3564 172.307 72.3849 172.307 74.084C172.307 78.3693 180.294 77.4574 180.294 80.0935C180.294 81.0833 179.357 81.4375 177.708 81.4375C175.477 81.4375 173.803 80.6522 172.942 79.8402L172.51 83.0609C173.322 83.5428 174.969 83.9738 176.948 84.0756L176.542 86.8903H179.255L178.85 84.0497C182.957 83.6945 183.693 81.5134 183.693 80.0686C183.693 74.9721 175.401 76.2392 175.401 73.7797Z" fill="#777171"/>
</g>
<defs>
<clipPath id="clip0">
<rect width="359" height="359" fill="white"/>
</clipPath>
</defs>
</svg>
