<svg width="359" height="359" viewBox="0 0 359 359" fill="none" xmlns="http://www.w3.org/2000/svg">
<g clip-path="url(#clip0)">
<path d="M178.84 297.587L57.6615 88.1254L301.011 88.6841L178.84 297.587Z" fill="white" fill-opacity="0.1"/>
<path d="M350.097 146.107L318.06 142.259C314.786 130.039 309.989 118.494 303.815 107.782L323.732 82.4662C326.776 78.5748 326.432 72.5582 322.913 69.0545L289.9 36.0278C286.425 32.5385 280.393 32.1651 276.487 35.2093L251.128 55.1546C240.458 48.98 228.913 44.184 216.721 40.9387L212.887 8.90284C212.298 4.00628 207.775 0 202.835 0H156.136C151.196 0 146.673 4.00628 146.099 8.90284L142.25 40.9387C130.044 44.1983 118.484 49.0087 107.815 55.1689L82.4695 35.2524C78.5923 32.2082 72.5611 32.5672 69.0716 36.0565L36.0436 69.0975C32.5685 72.5725 32.2095 78.6035 35.2682 82.5093L55.1711 107.839C48.9963 118.523 44.2001 130.082 40.9404 142.302L8.91756 146.136C4.0208 146.71 0 151.233 0 156.187V202.884C0 207.824 4.00644 212.318 8.91756 212.922L40.9547 216.77C44.2288 228.947 49.0107 240.492 55.1855 251.175L35.2825 276.534C32.2526 280.425 32.5972 286.442 36.101 289.946L69.0716 322.987C72.5611 326.462 78.5923 326.849 82.4695 323.805L107.829 303.845C118.513 310.02 130.059 314.83 142.265 318.076L146.113 350.097C146.702 355.008 151.211 359 156.151 359H202.849C207.804 359 212.313 355.008 212.887 350.097L216.735 318.076C228.956 314.802 240.501 310.006 251.171 303.845L276.531 323.762C280.422 326.806 286.439 326.447 289.928 322.958L322.942 289.917C326.446 286.442 326.805 280.411 323.746 276.491L303.815 251.161C310.004 240.477 314.786 228.932 318.06 216.741L350.082 212.893C354.994 212.304 359 207.824 359 202.856V156.159C359.014 151.19 355.022 146.696 350.097 146.107ZM179.514 269.239C129.944 269.239 89.7644 229.062 89.7644 179.493C89.7644 129.924 129.944 89.7464 179.514 89.7464C229.085 89.7464 269.264 129.924 269.264 179.493C269.264 229.062 229.099 269.239 179.514 269.239Z" fill="#1F1F1F"/>
<path d="M179.266 258.292L80.7113 88.5425L278.627 88.9969L179.266 258.292Z" fill="#1F1F1F"/>
<path d="M180.039 226.294L96.8133 80.5477L263.955 80.9314L180.039 226.294Z" fill="white"/>
<path d="M78 123.086C154 28.0858 238 92.0858 238 92.0858" stroke="#1F1F1F" stroke-width="50"/>
<path d="M217.246 79.851C335.133 134.434 284.527 233.214 284.527 233.214" stroke="#1F1F1F" stroke-width="50"/>
<circle cx="64" cy="166" r="8" fill="white"/>
<circle cx="96" cy="100" r="8" fill="white"/>
<circle cx="75" cy="235" r="8" fill="white"/>
<circle cx="120" cy="279" r="8" fill="white"/>
<circle cx="178" cy="305" r="8" fill="white"/>
<circle cx="245" cy="279" r="8" fill="white"/>
<circle cx="284" cy="230" r="8" fill="white"/>
<circle cx="295" cy="166" r="8" fill="white"/>
<circle cx="261" cy="100" r="8" fill="white"/>
<path d="M177.992 46.5586C168.93 46.5586 161.559 53.931 161.559 62.9925C161.559 72.0541 168.93 79.4254 177.992 79.4254C187.054 79.4254 194.425 72.0541 194.425 62.9925C194.425 53.931 187.054 46.5586 177.992 46.5586ZM177.992 76.8332C170.36 76.8332 164.151 70.6243 164.151 62.9925C164.151 55.3597 170.36 49.1507 177.992 49.1507C185.624 49.1507 191.833 55.3597 191.833 62.9925C191.833 70.6243 185.624 76.8332 177.992 76.8332Z" fill="white"/>
<path d="M175.401 59.7797C175.401 58.7401 176.922 58.5625 178.241 58.5625C179.484 58.5625 181.183 59.1452 182.603 59.8815L182.881 57.016C182.171 56.6099 180.523 56.1279 178.85 56.0272L179.255 53.1108H176.542L176.948 56.0272C173.449 56.3564 172.307 58.3849 172.307 60.084C172.307 64.3693 180.294 63.4574 180.294 66.0935C180.294 67.0833 179.357 67.4375 177.708 67.4375C175.477 67.4375 173.803 66.6522 172.942 65.8402L172.51 69.0609C173.322 69.5428 174.969 69.9738 176.948 70.0756L176.542 72.8903H179.255L178.85 70.0497C182.957 69.6945 183.693 67.5134 183.693 66.0686C183.693 60.9721 175.401 62.2392 175.401 59.7797Z" fill="white"/>
</g>
<defs>
<clipPath id="clip0">
<rect width="359" height="359" fill="white"/>
</clipPath>
</defs>
</svg>
